<svg xmlns="http://www.w3.org/2000/svg" xmlns:xlink="http://www.w3.org/1999/xlink" height="512" width="256">
<g>
<rect width="256" height="512" fill="#000000"  stroke-width="0" /> 
<path  fill="#000000" stroke-width="0" stroke="#000000" d = " M183 356 C183,357.994 178.823,360.338 177.5,361 170.956,364.272 163.723,369.111 155.5,365 152.562,363.531 148.369,360 145,360 143.803,360 143.481,358.49 142.5,358 139.433,356.467 135.69,355.595 132.5,354 129.637,352.569 129.532,348.516 126.5,347 124.728,346.114 121.545,354.977 119.5,356 115.444,358.028 106.613,355.557 103.5,354 91.2281,347.864 82,336.388 82,322 82,319.126 86.8306,316.161 85,312.5 82.8035,308.107 74.3457,307.191 74,306.5 70.9568,300.414 66.6935,276.113 70,269.5 71.9951,265.51 72.353,259 79,259 79,258.491 71.2595,255.38 70.5,255 68.5865,254.043 66.9764,247.453 66,245.5 65.2841,244.068 67.1834,234.133 68,232.5 68.9333,230.633 67.0667,227.367 68,225.5 73.3485,214.803 67.6507,202.425 80.5,196 83.9641,194.268 86.8912,191 91,191 91,189.737 83.9266,179.647 87,173.5 94.6614,158.177 107.999,141.75 123.5,134 124.718,133.391 125.676,130.912 127.5,130 133.46,127.02 139.81,131 144,131 145.039,131 145.979,126.521 147,125.5 148.523,123.977 147.209,123.082 148,121.5 149.517,118.465 155.664,113.418 158.5,112 168.649,106.926 180.432,106.034 190.5,101 193.153,99.6734 198.874,100.626 201,98.5 204.844,94.6557 221.648,94 228,94 229.574,94 237,93.249 237,95 244.381,95 251.813,100.126 255,106.5 256.969,110.437 254.635,136.23 253,139.5 252.041,141.418 251.899,143.703 251,145.5 250.333,146.834 245,148.398 245,150 245,152.144 249.262,150.381 250.5,151 252.905,152.202 254.74,154.981 256,157.5 257.061,159.621 256,165.076 256,167.5 256,176.333 256,185.167 256,194 256,196.333 256,198.667 256,201 256,203.667 256,206.333 256,209 256,210.333 256,211.667 256,213 256,213.333 256,213.667 256,214 256,231 256,248 256,265 256,269 256,273 256,277 256,282.667 256,288.333 256,294 256,295.667 256,297.333 256,299 256,299.667 256,300.333 256,301 256,302.333 256,303.667 256,305 256,307.333 256,309.667 256,312 256,316 256,320 256,324 256,325.333 256,326.667 256,328 256,334.333 256,340.667 256,347 256,349.333 256,351.667 256,354 256,360.658 245.648,363 240,363 238.457,363 232,361.291 232,360 228.966,360 227.05,356.275 224.5,355 220.962,353.231 212.577,345.654 211,342.5 210.067,340.633 211.933,337.367 211,335.5 210.4,334.3 208.6,333.7 208,332.5 206.238,328.975 211.246,321 216,321 216,315.695 213.139,314.778 211,310.5 210.371,309.242 212.821,308.141 212,306.5 209.509,301.518 208,296.005 208,290 205.506,290 193,289.971 193,285 191.804,285 189.097,283.702 188.5,284 183.675,286.413 191.069,294 182,294 181.264,294 181,294.264 181,295 181,296.355 180,296.921 180,298 180,299.947 183,300.636 183,303 186.069,303 200,302.206 200,306 203.291,306 204,311.683 204,314 204,316.25 206.139,319.222 205,321.5 201.914,327.673 200.062,334.376 197,340.5 195.851,342.799 193.16,344.18 192,346.5 191.061,348.378 185.536,356 183,356  Z" />

<path  fill="#F91F65" stroke-width="0" stroke="#F91F65" d = " M172 170 C173.313,170 183,177.261 183,178 186.15,178 187.219,167.937 186,165.5 183.669,160.838 181.336,156.172 179,151.5 176.003,145.506 169.954,141.409 167,135.5 165.586,132.671 164.739,125.881 168.5,124 170.239,123.131 175.314,118.907 177.5,120 180.004,121.252 186.315,126.592 189.5,125 196.653,121.423 200.748,104.124 210.5,109 215.807,111.654 203.463,123.574 202,126.5 198.46,133.58 213,138.386 213,135 213,131.152 219,127.848 219,124 219,123.264 219.264,123 220,123 220,121.745 228.771,106.959 230,104.5 231.587,101.325 237,98.7096 237,95 237,93.249 229.574,94 228,94 221.648,94 204.844,94.6557 201,98.5 198.874,100.626 193.153,99.6734 190.5,101 180.432,106.034 168.649,106.926 158.5,112 155.664,113.418 149.517,118.465 148,121.5 147.209,123.082 148.523,123.977 147,125.5 145.979,126.521 145.039,131 144,131 144,133.1 146.084,135.668 147,137.5 148.678,140.856 147.298,146.095 149,149.5 151.988,155.475 157.637,160.069 163.5,163 165.658,164.079 168.611,169 171,169 171.736,169 172,169.264 172,170  Z" />

<path  fill="#17DED3" stroke-width="0" stroke="#17DED3" d = " M210 171 C207.441,171 205.559,173 203,173 203,167.631 201.397,162.707 204,157.5 208.855,147.791 213.015,156.242 217.5,154 220.7,152.4 222.3,147.6 225.5,146 229.052,144.224 235.924,140.653 238,136.5 240.531,131.438 243,126.117 243,120 243,118.11 243.252,112.124 239.5,114 236.775,115.363 234.251,121.997 233,124.5 229.615,131.27 220.269,135 213,135 213,131.152 219,127.848 219,124 219.736,124 220,123.736 220,123 220,121.745 228.771,106.959 230,104.5 231.587,101.325 237,98.7096 237,95 244.381,95 251.813,100.126 255,106.5 256.969,110.437 254.635,136.23 253,139.5 252.041,141.418 251.899,143.703 251,145.5 250.333,146.834 245,148.398 245,150 233.906,150 223.404,170 211,170 210.264,170 210,170.264 210,171  Z" />

<path  fill="#A67EFB" stroke-width="0" stroke="#A67EFB" d = " M181 218 C179.148,218 177.691,221 176,221 173.989,221 172.011,218 170,218 169.667,218 169.333,218 169,218 169,216.738 167.927,217 167,217 167,213.629 173,211.466 173,207 173,202.926 172.66,197.08 168.5,195 154.283,187.892 138.848,183.174 124.5,176 121.419,174.459 110.672,175.844 109,172.5 107.128,168.756 121.471,154.985 125.5,157 129.362,158.931 133.704,169.102 139.5,172 145.956,175.228 153.097,176.799 159.5,180 161.367,180.933 164.633,179.067 166.5,180 168.211,180.855 173.317,182.091 175.5,181 177.354,180.073 180.958,178 183,178 186.15,178 187.219,167.937 186,165.5 183.669,160.838 181.336,156.172 179,151.5 176.003,145.506 169.954,141.409 167,135.5 165.586,132.671 164.739,125.881 168.5,124 170.239,123.131 175.314,118.907 177.5,120 180.004,121.252 186.315,126.592 189.5,125 196.653,121.423 200.748,104.124 210.5,109 215.807,111.654 203.463,123.574 202,126.5 198.46,133.58 213,138.386 213,135 220.269,135 229.615,131.27 233,124.5 234.251,121.997 236.775,115.363 239.5,114 243.252,112.124 243,118.11 243,120 243,126.117 240.531,131.438 238,136.5 235.924,140.653 229.052,144.224 225.5,146 222.3,147.6 220.7,152.4 217.5,154 213.015,156.242 208.855,147.791 204,157.5 201.397,162.707 203,167.631 203,173 203,174.814 205.231,175.962 206,177.5 211.453,188.406 225.305,183.195 232,176.5 233.203,175.297 238.923,168.211 240.5,169 242.913,170.206 241.972,186.764 239.5,188 237.47,189.015 233.726,186.774 232,188.5 227.877,192.623 231,191.106 231,195 228.329,195 225.671,199 223,199 218.857,199 211.568,194.466 206.5,197 205.519,197.49 205.197,199 204,199 198.34,199 195,198.161 195,206 191.37,206 181,213.825 181,218  Z" />

<path  fill="#000000" stroke-width="0" stroke="#000000" d = " M220 123 C219.264,123 219,123.264 219,124 219.736,124 220,123.736 220,123  Z" />

<path  fill="#BBCBDD" stroke-width="0" stroke="#BBCBDD" d = " M163 207 C166.333,207 169.667,207 173,207 173,202.926 172.66,197.08 168.5,195 154.283,187.892 138.848,183.174 124.5,176 121.419,174.459 110.672,175.844 109,172.5 107.128,168.756 121.471,154.985 125.5,157 129.362,158.931 133.704,169.102 139.5,172 145.956,175.228 153.097,176.799 159.5,180 161.367,180.933 164.633,179.067 166.5,180 168.211,180.855 173.317,182.091 175.5,181 177.354,180.073 180.958,178 183,178 183,177.261 173.313,170 172,170 171.264,170 171,169.736 171,169 168.611,169 165.658,164.079 163.5,163 157.637,160.069 151.988,155.475 149,149.5 147.298,146.095 148.678,140.856 147,137.5 146.084,135.668 144,133.1 144,131 139.81,131 133.46,127.02 127.5,130 125.676,130.912 124.718,133.391 123.5,134 107.999,141.75 94.6614,158.177 87,173.5 83.9266,179.647 91,189.737 91,191 94.0121,191 97.902,192.701 100.5,194 103.751,195.626 120.429,194 125,194 130.54,194 149.044,202.272 154.5,205 155.968,205.734 163,204.901 163,207  Z" />

<path  fill="#E2B401" stroke-width="0" stroke="#E2B401" d = " M254 199 C254,199.964 255,200.036 255,201 252.212,201 245.939,202.22 243.5,201 239.939,199.22 235.114,195 231,195 231,191.106 227.877,192.623 232,188.5 233.726,186.774 237.47,189.015 239.5,188 241.972,186.764 242.913,170.206 240.5,169 238.923,168.211 233.203,175.297 232,176.5 225.305,183.195 211.453,188.406 206,177.5 205.231,175.962 203,174.814 203,173 205.559,173 207.441,171 210,171 210.736,171 211,170.736 211,170 223.404,170 233.906,150 245,150 245,152.144 249.262,150.381 250.5,151 252.905,152.202 254.74,154.981 256,157.5 257.061,159.621 256,165.076 256,167.5 256,176.333 256,185.167 256,194 255.161,194 254,195.161 254,196 252.514,196 252.514,199 254,199  Z" />

<path  fill="#000000" stroke-width="0" stroke="#000000" d = " M171 169 C171.736,169 172,169.264 172,170 171.264,170 171,169.736 171,169  Z" />

<path  fill="#000000" stroke-width="0" stroke="#000000" d = " M211 170 C210.264,170 210,170.264 210,171 210.736,171 211,170.736 211,170  Z" />

<path  fill="#9A9113" stroke-width="0" stroke="#9A9113" d = " M130 286 C125.478,286 121.289,288 116,288 113.025,288 109.21,281.355 106.5,280 98.4058,275.953 92.4277,266.964 84.5,263 82.8982,262.199 80.7936,259 79,259 79,258.491 71.2595,255.38 70.5,255 68.5865,254.043 66.9764,247.453 66,245.5 65.2841,244.068 67.1834,234.133 68,232.5 68.9333,230.633 67.0667,227.367 68,225.5 73.3485,214.803 67.6507,202.425 80.5,196 83.9641,194.268 86.8912,191 91,191 94.0121,191 97.902,192.701 100.5,194 103.751,195.626 120.429,194 125,194 125,196.621 131.858,197.179 133.5,198 137.107,199.804 139.863,203.181 143.5,205 145.978,206.239 159.639,207 163,207 166.333,207 169.667,207 173,207 173,211.466 167,213.629 167,217 162.258,217 152.923,225.789 148.5,228 147.603,228.449 143,230.24 143,231 133.238,231 135.762,221 124.5,221 118.436,221 110.268,223.884 104.5,221 101.029,219.265 90.8755,214.812 86.5,217 83.5346,218.483 81.4085,224.317 83,227.5 85.1183,231.737 91.2133,229.357 94.5,231 100.026,233.763 104.082,235.582 109,240.5 115.085,246.585 112.219,257.359 121.5,262 125.877,264.188 146,255.891 146,268 146,271.342 138,273.658 138,277 137.264,277 137,277.264 137,278 137,281.009 130,282.991 130,286  Z" />

<path  fill="#000000" stroke-width="0" stroke="#000000" d = " M125 194 C130.54,194 149.044,202.272 154.5,205 155.968,205.734 163,204.901 163,207 159.639,207 145.978,206.239 143.5,205 139.863,203.181 137.107,199.804 133.5,198 131.858,197.179 125,196.621 125,194  Z" />

<path  fill="#733DA4" stroke-width="0" stroke="#733DA4" d = " M255 201 C255.333,201 255.667,201 256,201 256,198.667 256,196.333 256,194 255.161,194 254,195.161 254,196 254,197 254,198 254,199 254,199.964 255,200.036 255,201  Z" />

<path  fill="#9261ED" stroke-width="0" stroke="#9261ED" d = " M236 208 C243.086,208 248.914,209 256,209 256,206.333 256,203.667 256,201 255.667,201 255.333,201 255,201 252.212,201 245.939,202.22 243.5,201 239.939,199.22 235.114,195 231,195 228.329,195 225.671,199 223,199 223,202.551 236,204.595 236,208  Z" />

<path  fill="#000000" stroke-width="0" stroke="#000000" d = " M254 196 C252.514,196 252.514,199 254,199 254,198 254,197 254,196  Z" />

<path  fill="#BADE6E" stroke-width="0" stroke="#BADE6E" d = " M211 204 C211,196.139 228.854,206.354 231,208.5 231.167,208.667 231.289,208.895 231.5,209 232.508,209.504 236,209.22 236,208 236,204.595 223,202.551 223,199 218.857,199 211.568,194.466 206.5,197 205.519,197.49 205.197,199 204,199 204,199.667 204,200.333 204,201 207.654,201 207.091,204 211,204  Z" />

<path  fill="#0E3374" stroke-width="0" stroke="#0E3374" d = " M195 206 C195,209.43 203,208.184 203,206 203,205.333 203,204.667 203,204 200.784,204 202.652,201 204,201 204,200.333 204,199.667 204,199 198.34,199 195,198.161 195,206  Z" />

<path  fill="#6DC9C6" stroke-width="0" stroke="#6DC9C6" d = " M211 205 C211.333,205 211.667,205 212,205 212,204.264 211.736,204 211,204 207.091,204 207.654,201 204,201 202.652,201 200.784,204 203,204 204.004,204 207,201.69 207,205 207.667,205 208.333,205 209,205 209.667,205 210.333,205 211,205  Z" />

<path  fill="#F7083A" stroke-width="0" stroke="#F7083A" d = " M229 211 C230.17,211 231.474,212.487 232.5,213 235.801,214.65 238.645,211 240,211 244.816,211 250.297,213 256,213 256,211.667 256,210.333 256,209 248.914,209 243.086,208 236,208 236,209.22 232.508,209.504 231.5,209 231.289,208.895 231.167,208.667 231,208.5 228.854,206.354 211,196.139 211,204 211.736,204 212,204.264 212,205 212.667,205 213.333,205 214,205 217.721,205 229,206.334 229,211  Z" />

<path  fill="#2E75C5" stroke-width="0" stroke="#2E75C5" d = " M203 206 C203.333,206 203.667,206 204,206 205.079,206 205.645,205 207,205 207,201.69 204.004,204 203,204 203,204.667 203,205.333 203,206  Z" />

<path  fill="#D9DD3C" stroke-width="0" stroke="#D9DD3C" d = " M204 209 C206.286,209 209.104,204.708 211,208.5 211.16,208.82 206.537,213 208.5,213 210.067,213 211.771,210 214,210 214,208.188 212,208.13 212,207.5 212,206.62 214,206.123 214,205 213.333,205 212.667,205 212,205 211.667,205 211.333,205 211,205 211,206.399 209,206.399 209,205 208.333,205 207.667,205 207,205 205.645,205 205.079,206 204,206 204,207 204,208 204,209  Z" />

<path  fill="#BADE6E" stroke-width="0" stroke="#BADE6E" d = " M209 205 C209.667,205 210.333,205 211,205 211,206.399 209,206.399 209,205  Z" />

<path  fill="#A310DD" stroke-width="0" stroke="#A310DD" d = " M229 211 C228.264,211 228,211.264 228,212 224.732,212 223.349,219.849 215,211.5 214.486,210.986 214,210.751 214,210 214,208.188 212,208.13 212,207.5 212,206.62 214,206.123 214,205 217.721,205 229,206.334 229,211  Z" />

<path  fill="#C87DAD" stroke-width="0" stroke="#C87DAD" d = " M170 292 C170.667,292 171.333,292 172,292 172,288.452 169.46,282 165,282 159.423,282 159.911,263.679 162,259.5 165.357,252.785 173.766,246.967 177,240.5 182.522,229.456 186.777,209 202,209 202.667,209 203.333,209 204,209 204,208 204,207 204,206 203.667,206 203.333,206 203,206 203,208.184 195,209.43 195,206 191.37,206 181,213.825 181,218 181,219.521 176,224.508 176,222 174.326,222 170.721,229.058 170,230.5 168.602,233.296 163,236.86 163,240 167.714,240 167.881,241 163,241 163,242.852 160,244.309 160,246 162.743,246 168.821,248.339 163.5,251 161.761,251.87 160.262,250 159,250 159,251.705 160,252.295 160,254 163.654,254 163.654,256 160,256 160,258.527 156,260.473 156,263 158.761,263 158.761,266 156,266 156,274.332 153,282.707 153,291 154.245,291 156.331,288.584 157.5,288 160.431,286.535 162.797,290 165,290 165,287.239 168,287.239 168,290 168.839,290 170,291.161 170,292  Z" />

<path  fill="#207BC3" stroke-width="0" stroke="#207BC3" d = " M197 265 C199.203,265 201.569,261.535 204.5,263 207.118,264.309 209.65,272 211,272 213.514,272 218.617,265.883 220.5,264 225.722,258.778 232.871,251 241,251 241,247.333 241,243.667 241,240 239.71,240 239.53,244.015 237.5,243 236.03,242.265 231.772,241.045 231,239.5 230.599,238.698 232.534,233.433 233,232.5 233.278,231.944 236,215.5 236,215 233.848,215 228,214.638 228,212 224.732,212 223.349,219.849 215,211.5 214.486,210.986 214,210.751 214,210 211.771,210 210.067,213 208.5,213 206.537,213 211.16,208.82 211,208.5 209.104,204.708 206.286,209 204,209 204,211.797 196.416,216.042 194.5,217 189.244,219.628 185,230.891 185,236 185,237 185,238 185,239 186.676,239 195.947,253.394 197,255.5 197.839,257.177 195.403,256.695 195,257.5 194.424,258.652 197,261.466 197,263 197,263.667 197,264.333 197,265  Z" />

<path  fill="#9CF2FE" stroke-width="0" stroke="#9CF2FE" d = " M164 263 C164,264.311 161.873,272.246 163,274.5 163.946,276.392 165,279.872 165,282 159.423,282 159.911,263.679 162,259.5 165.357,252.785 173.766,246.967 177,240.5 182.522,229.456 186.777,209 202,209 202,213.189 191.06,216.38 189,220.5 186.09,226.32 184.893,232.714 182,238.5 180.539,241.421 177.442,243.617 176,246.5 174.033,250.434 167,253.145 167,257 165.338,257 164,261.357 164,263  Z" />

<path  fill="#929045" stroke-width="0" stroke="#929045" d = " M185 236 C183.876,236 181.555,241.39 181,242.5 179.439,245.622 169.899,257 167,257 167,253.145 174.033,250.434 176,246.5 177.442,243.617 180.539,241.421 182,238.5 184.893,232.714 186.09,226.32 189,220.5 191.06,216.38 202,213.189 202,209 202.667,209 203.333,209 204,209 204,211.797 196.416,216.042 194.5,217 189.244,219.628 185,230.891 185,236  Z" />

<path  fill="#03C0F3" stroke-width="0" stroke="#03C0F3" d = " M245 220 C247.911,220 249.322,222 252,222 252,216.124 247.258,214 256,214 256,213.667 256,213.333 256,213 250.297,213 244.816,211 240,211 238.645,211 235.801,214.65 232.5,213 231.474,212.487 230.17,211 229,211 228.264,211 228,211.264 228,212 228,214.638 233.848,215 236,215 239.641,215 245,215.042 245,220  Z" />

<path  fill="#DACFF7" stroke-width="0" stroke="#DACFF7" d = " M253 242 C254.665,242 254,246.222 254,247.5 254,249.566 252.581,265 256,265 256,248 256,231 256,214 247.258,214 252,216.124 252,222 252,223.333 252,224.667 252,226 253.801,226 253,239.842 253,242  Z" />

<path  fill="#5A4C4E" stroke-width="0" stroke="#5A4C4E" d = " M246 226 C246,228.143 243.022,240 241,240 239.71,240 239.53,244.015 237.5,243 236.03,242.265 231.772,241.045 231,239.5 230.599,238.698 232.534,233.433 233,232.5 233.278,231.944 236,215.5 236,215 239.641,215 245,215.042 245,220 245,221.321 244.316,226 246,226  Z" />

<path  fill="#C65BFA" stroke-width="0" stroke="#C65BFA" d = " M185 320 C185,322.922 170.347,332.577 167.5,334 165.56,334.97 160,333.176 160,331 158.523,331 156.07,327.57 155,326.5 147.759,319.259 150,313.013 150,304 150,302.016 151.444,298 154,298 154,295.725 153,293.667 153,291 153,282.707 156,274.332 156,266 156,265 156,264 156,263 156,260.473 160,258.527 160,256 160,255.333 160,254.667 160,254 160,252.295 159,251.705 159,250 159,248.393 160,247.179 160,246 158.823,246 152,241.161 152,240 150.952,240 149,240.473 149,239 149,236.29 143,233.71 143,231 133.238,231 135.762,221 124.5,221 118.436,221 110.268,223.884 104.5,221 101.029,219.265 90.8755,214.812 86.5,217 83.5346,218.483 81.4085,224.317 83,227.5 85.1183,231.737 91.2133,229.357 94.5,231 100.026,233.763 104.082,235.582 109,240.5 115.085,246.585 112.219,257.359 121.5,262 125.877,264.188 146,255.891 146,268 148.812,268 150.314,279.871 149,282.5 142.571,295.358 134.695,305.402 121.5,312 112.977,316.261 102.19,296.845 96.5,294 94.3933,292.947 87.9189,288.662 86,292.5 84.9275,294.645 90.5362,301.018 92.5,302 101.274,306.387 100,314.247 100,322 100,325.583 99.7365,330.118 103.5,332 105.848,333.174 108.748,328.876 110.5,328 116.15,325.175 122.895,324.803 128.5,322 132.74,319.88 133.783,314 139,314 148.413,314 152.169,336.335 161.5,341 165.403,342.952 166.972,340 171,340 171,339.154 175.896,336.604 177,335.5 181.969,330.531 191,325.767 191,318 191,317.667 191,317.333 191,317 188.512,317 187.01,320 185,320  Z" />

<path  fill="#FAD014" stroke-width="0" stroke="#FAD014" d = " M154 234 C150.463,234 151.813,239 149,239 149,236.29 143,233.71 143,231 143,230.24 147.603,228.449 148.5,228 152.923,225.789 162.258,217 167,217 167.927,217 169,216.738 169,218 167.222,218 166.028,221.236 164.5,222 160.425,224.038 154,228.605 154,234  Z" />

<path  fill="#3F3EC0" stroke-width="0" stroke="#3F3EC0" d = " M170 218 C170,218.418 159.094,228.406 158,229.5 157.097,230.403 154.673,234 154,234 154,228.605 160.425,224.038 164.5,222 166.028,221.236 167.222,218 169,218 169.333,218 169.667,218 170,218  Z" />

<path  fill="#5D9BF5" stroke-width="0" stroke="#5D9BF5" d = " M163 241 C163,242.852 160,244.309 160,246 158.823,246 152,241.161 152,240 152,236.666 154,236.439 154,234 154.673,234 157.097,230.403 158,229.5 159.094,228.406 170,218.418 170,218 172.011,218 173.989,221 176,221 176,221.333 176,221.667 176,222 174.326,222 170.721,229.058 170,230.5 168.602,233.296 163,236.86 163,240 163,240.333 163,240.667 163,241  Z" />

<path  fill="#1720BB" stroke-width="0" stroke="#1720BB" d = " M176 221 C176,221.333 176,221.667 176,222 176,224.508 181,219.521 181,218 179.148,218 177.691,221 176,221  Z" />

<path  fill="#5316A7" stroke-width="0" stroke="#5316A7" d = " M247 226 C249.741,226 249.75,226 252,226 252,224.667 252,223.333 252,222 249.322,222 247.911,220 245,220 245,221.321 244.316,226 246,226 246.333,226 246.667,226 247,226  Z" />

<path  fill="#353BC8" stroke-width="0" stroke="#353BC8" d = " M253 242 C253,243.454 247.634,243.433 246.5,244 245.276,244.612 245.663,248 244,248 244,239.866 247,234.381 247,226 249.741,226 249.75,226 252,226 253.801,226 253,239.842 253,242  Z" />

<path  fill="#44D7C0" stroke-width="0" stroke="#44D7C0" d = " M241 251 C241,252.262 242.073,252 243,252 243,250.821 244,249.607 244,248 244,239.866 247,234.381 247,226 246.667,226 246.333,226 246,226 246,228.143 243.022,240 241,240 241,243.667 241,247.333 241,251  Z" />

<path  fill="#3F3EC0" stroke-width="0" stroke="#3F3EC0" d = " M149 239 C149,240.473 150.952,240 152,240 152,236.666 154,236.439 154,234 150.463,234 151.813,239 149,239  Z" />

<path  fill="#C87DAD" stroke-width="0" stroke="#C87DAD" d = " M188 258 C186.445,258 187.51,260 186.5,260 186.378,260 175.46,254.02 171.5,256 169.439,257.03 165.555,263 164,263 164,261.357 165.338,257 167,257 169.899,257 179.439,245.622 181,242.5 181.555,241.39 183.876,236 185,236 185,237 185,238 185,239 185,242.896 187,247.669 187,252 187,253.564 188,255.876 188,258  Z" />

<path  fill="#8EF9F4" stroke-width="0" stroke="#8EF9F4" d = " M187 252 C191.233,252 189.454,263 197,263 197,261.466 194.424,258.652 195,257.5 195.403,256.695 197.839,257.177 197,255.5 195.947,253.394 186.676,239 185,239 185,242.896 187,247.669 187,252  Z" />

<path  fill="#1720BB" stroke-width="0" stroke="#1720BB" d = " M163 240 C167.714,240 167.881,241 163,241 163,240.667 163,240.333 163,240  Z" />

<path  fill="#47E608" stroke-width="0" stroke="#47E608" d = " M252 277 C253.333,277 254.667,277 256,277 256,273 256,269 256,265 252.581,265 254,249.566 254,247.5 254,246.222 254.665,242 253,242 253,243.454 247.634,243.433 246.5,244 245.276,244.612 245.663,248 244,248 244,249.607 243,250.821 243,252 243,254.278 246,256.847 246,259 248.003,259 249,258.707 249,261 252.894,261 251.926,268 249,268 249,269 249,270 249,271 253.292,271 252,273.899 252,276 252,276.333 252,276.667 252,277  Z" />

<path  fill="#1720BB" stroke-width="0" stroke="#1720BB" d = " M160 246 C162.743,246 168.821,248.339 163.5,251 161.761,251.87 160.262,250 159,250 159,248.393 160,247.179 160,246  Z" />

<path  fill="#AF00CC" stroke-width="0" stroke="#AF00CC" d = " M236 294 C234.008,294 232.95,287.775 230.5,289 227.968,290.266 229.878,296 226,296 225.65,296 217,287.513 217,287 217,285.508 221,285.491 221,284.5 221,282.13 215.746,280 214,280 214,276.53 211,274.722 211,272 213.514,272 218.617,265.883 220.5,264 225.722,258.778 232.871,251 241,251 241,252.262 242.073,252 243,252 243,254.278 246,256.847 246,259 237.653,259 236.843,268 246,268 246.927,268 248,268.262 248,267 248.736,267 249,267.264 249,268 249,269 249,270 249,271 249,273.033 251,274.256 251,276 251,280.499 249,283.354 249,288 249,289.577 247.238,290 246,290 246,288.485 247.754,287.008 247,285.5 244.796,281.092 237.096,281.307 235,285.5 233.693,288.114 236,291.767 236,294  Z" />

<path  fill="#1208FD" stroke-width="0" stroke="#1208FD" d = " M192 265 C193.667,265 195.333,265 197,265 197,264.333 197,263.667 197,263 189.454,263 191.233,252 187,252 187,253.564 188,255.876 188,258 188,258.918 191.644,265 192,265  Z" />

<path  fill="#1720BB" stroke-width="0" stroke="#1720BB" d = " M160 254 C163.654,254 163.654,256 160,256 160,255.333 160,254.667 160,254  Z" />

<path  fill="#92EB00" stroke-width="0" stroke="#92EB00" d = " M182 294 C181.264,294 181,294.264 181,295 178.725,295 176.667,294 174,294 174,293.161 172.839,292 172,292 172,288.452 169.46,282 165,282 165,279.872 163.946,276.392 163,274.5 161.873,272.246 164,264.311 164,263 165.555,263 169.439,257.03 171.5,256 175.46,254.02 186.378,260 186.5,260 187.51,260 186.445,258 188,258 188,258.918 191.644,265 192,265 192,266.297 190.807,271.114 191,271.5 191.105,271.711 191.289,271.895 191.5,272 193.624,273.062 197.676,282 193,282 193,280.952 193.473,279 192,279 192,276.488 190,275.573 190,273.5 190,259.208 174.631,255.239 168,268.5 166.052,272.396 170.539,278.578 172,281.5 173.45,284.4 175.948,289.224 179.5,291 181.738,292.119 181.894,289 184,289 184,291.255 182,291.745 182,294  Z" />

<path  fill="#4C7B95" stroke-width="0" stroke="#4C7B95" d = " M82 322 C88,322 94,322 100,322 100,314.247 101.274,306.387 92.5,302 90.5362,301.018 84.9275,294.645 86,292.5 87.9189,288.662 94.3933,292.947 96.5,294 102.19,296.845 112.977,316.261 121.5,312 134.695,305.402 142.571,295.358 149,282.5 150.314,279.871 148.812,268 146,268 146,271.342 138,273.658 138,277 138,277.736 137.736,278 137,278 137,281.009 130,282.991 130,286 130,288.593 126.833,288.334 125.5,289 124.555,289.472 118,298.537 118,291 118,289.667 116,289.333 116,288 113.025,288 109.21,281.355 106.5,280 98.4058,275.953 92.4277,266.964 84.5,263 82.8982,262.199 80.7936,259 79,259 72.353,259 71.9951,265.51 70,269.5 66.6935,276.113 70.9568,300.414 74,306.5 74.3457,307.191 82.8035,308.107 85,312.5 86.8306,316.161 82,319.126 82,322  Z" />

<path  fill="#BBF0B1" stroke-width="0" stroke="#BBF0B1" d = " M246 259 C237.653,259 236.843,268 246,268 246,265 246,262 246,259  Z" />

<path  fill="#C1503A" stroke-width="0" stroke="#C1503A" d = " M248 267 C248,268.262 246.927,268 246,268 246,265 246,262 246,259 248.003,259 249,258.707 249,261 247.316,261 248,265.679 248,267  Z" />

<path  fill="#36130A" stroke-width="0" stroke="#36130A" d = " M192 279 C182.611,279 184,281.828 184,289 181.894,289 181.738,292.119 179.5,291 175.948,289.224 173.45,284.4 172,281.5 170.539,278.578 166.052,272.396 168,268.5 174.631,255.239 190,259.208 190,273.5 190,275.573 192,276.488 192,279  Z" />

<path  fill="#160700" stroke-width="0" stroke="#160700" d = " M248 267 C248.736,267 249,267.264 249,268 251.926,268 252.894,261 249,261 247.316,261 248,265.679 248,267  Z" />

<path  fill="#1720BB" stroke-width="0" stroke="#1720BB" d = " M156 263 C158.761,263 158.761,266 156,266 156,265 156,264 156,263  Z" />

<path  fill="#E13163" stroke-width="0" stroke="#E13163" d = " M212 285 C207.465,285 211.114,290 208,290 205.506,290 193,289.971 193,285 193,284 193,283 193,282 197.676,282 193.624,273.062 191.5,272 191.289,271.895 191.105,271.711 191,271.5 190.807,271.114 192,266.297 192,265 193.667,265 195.333,265 197,265 199.203,265 201.569,261.535 204.5,263 207.118,264.309 209.65,272 211,272 211,274.722 214,276.53 214,280 209.727,280 212,282.687 212,285  Z" />

<path  fill="#A56DA3" stroke-width="0" stroke="#A56DA3" d = " M251 276 C251.333,276 251.667,276 252,276 252,273.899 253.292,271 249,271 249,273.033 251,274.256 251,276  Z" />

<path  fill="#1345DB" stroke-width="0" stroke="#1345DB" d = " M249 288 C249.667,288 250.333,288 251,288 251,283.905 252,280.833 252,277 252,276.667 252,276.333 252,276 251.667,276 251.333,276 251,276 251,280.499 249,283.354 249,288  Z" />

<path  fill="#000000" stroke-width="0" stroke="#000000" d = " M138 277 C137.264,277 137,277.264 137,278 137.736,278 138,277.736 138,277  Z" />

<path  fill="#DCD059" stroke-width="0" stroke="#DCD059" d = " M251 288 C252.608,288 251.926,294 256,294 256,288.333 256,282.667 256,277 254.667,277 253.333,277 252,277 252,280.833 251,283.905 251,288  Z" />

<path  fill="#1208FD" stroke-width="0" stroke="#1208FD" d = " M184 289 C184,291.255 182,291.745 182,294 191.069,294 183.675,286.413 188.5,284 189.097,283.702 191.804,285 193,285 193,284 193,283 193,282 193,280.952 193.473,279 192,279 182.611,279 184,281.828 184,289  Z" />

<path  fill="#1DF5A6" stroke-width="0" stroke="#1DF5A6" d = " M216 287 C216.333,287 216.667,287 217,287 217,285.508 221,285.491 221,284.5 221,282.13 215.746,280 214,280 209.727,280 212,282.687 212,285 213.465,285 216,284.891 216,287  Z" />

<path  fill="#ADD109" stroke-width="0" stroke="#ADD109" d = " M237 298 C240.073,298 241.927,299 245,299 245.839,299 247,297.839 247,297 247,295.181 246,292.409 246,290 246,288.485 247.754,287.008 247,285.5 244.796,281.092 237.096,281.307 235,285.5 233.693,288.114 236,291.767 236,294 236,295.179 237,296.393 237,298  Z" />

<path  fill="#001AE6" stroke-width="0" stroke="#001AE6" d = " M216 322 C216.333,322 216.667,322 217,322 220.009,322 221.991,315 225,315 225,314.264 225.264,314 226,314 226,313.293 221.071,309.571 220,308.5 216.041,304.541 205.091,287 216,287 216,284.891 213.465,285 212,285 207.465,285 211.114,290 208,290 208,296.005 209.509,301.518 212,306.5 212.821,308.141 210.371,309.242 211,310.5 213.139,314.778 216,315.695 216,321 216,321.333 216,321.667 216,322  Z" />

<path  fill="#000000" stroke-width="0" stroke="#000000" d = " M130 286 C125.478,286 121.289,288 116,288 116,289.333 118,289.667 118,291 118,298.537 124.555,289.472 125.5,289 126.833,288.334 130,288.593 130,286  Z" />

<path  fill="#C71C30" stroke-width="0" stroke="#C71C30" d = " M226 314 C228.089,314 229.09,315 231,315 231,314.073 230.738,313 232,313 232,309.716 229.179,310.858 228,308.5 227.001,306.501 230.234,303.967 229,301.5 227.911,299.323 226,298.678 226,296 225.65,296 217,287.513 217,287 216.667,287 216.333,287 216,287 205.091,287 216.041,304.541 220,308.5 221.071,309.571 226,313.293 226,314  Z" />

<path  fill="#0E3374" stroke-width="0" stroke="#0E3374" d = " M154 298 C154.736,298 155,298.264 155,299 157.888,299 159.914,297 163,297 163,295.535 162.891,293 165,293 165,292.333 165,291.667 165,291 165,290.667 165,290.333 165,290 162.797,290 160.431,286.535 157.5,288 156.331,288.584 154.245,291 153,291 153,293.667 154,295.725 154,298  Z" />

<path  fill="#4095AF" stroke-width="0" stroke="#4095AF" d = " M168 290 C166.645,290 166.079,291 165,291 165,290.667 165,290.333 165,290 165,287.239 168,287.239 168,290  Z" />

<path  fill="#1DEADA" stroke-width="0" stroke="#1DEADA" d = " M252 301 C253,301 254,301 255,301 255,300.073 254.738,299 256,299 256,297.333 256,295.667 256,294 251.926,294 252.608,288 251,288 250.333,288 249.667,288 249,288 249,289.577 247.238,290 246,290 246,292.409 247,295.181 247,297 247.754,297 252,300.639 252,301  Z" />

<path  fill="#5B3554" stroke-width="0" stroke="#5B3554" d = " M239 313 C239,313.333 239,313.667 239,314 236.228,314 234.639,313 232,313 232,309.716 229.179,310.858 228,308.5 227.001,306.501 230.234,303.967 229,301.5 227.911,299.323 226,298.678 226,296 229.878,296 227.968,290.266 230.5,289 232.95,287.775 234.008,294 236,294 236,295.179 237,296.393 237,298 237,303.117 239,307.052 239,313  Z" />

<path  fill="#2E75C5" stroke-width="0" stroke="#2E75C5" d = " M170 292 C168.656,292 166.855,293 165,293 165,292.333 165,291.667 165,291 166.079,291 166.645,290 168,290 168.839,290 170,291.161 170,292  Z" />

<path  fill="#E70121" stroke-width="0" stroke="#E70121" d = " M163 297 C166.086,297 168.112,297 171,297 171,294.95 174,295.532 174,294 174,293.161 172.839,292 172,292 171.333,292 170.667,292 170,292 168.656,292 166.855,293 165,293 162.891,293 163,295.535 163,297  Z" />

<path  fill="#F665EC" stroke-width="0" stroke="#F665EC" d = " M171 298 C174,298 177,298 180,298 180,296.921 181,296.355 181,295 178.725,295 176.667,294 174,294 174,295.532 171,294.95 171,297 171,297.333 171,297.667 171,298  Z" />

<path  fill="#E6C9AE" stroke-width="0" stroke="#E6C9AE" d = " M153 303 C152.036,303 151.964,304 151,304 151,300.835 155,301.492 155,299 157.888,299 159.914,297 163,297 166.086,297 168.112,297 171,297 171,297.333 171,297.667 171,298 171,299.533 169,300.095 169,302 168.264,302 168.618,302.118 168,301.5 166.484,299.984 157,296.526 157,301 155.863,301 153,301.8 153,303  Z" />

<path  fill="#000000" stroke-width="0" stroke="#000000" d = " M245 302 C247.333,302 249.667,302 252,302 252,301.667 252,301.333 252,301 252,300.639 247.754,297 247,297 247,297.839 245.839,299 245,299 245,300 245,301 245,302  Z" />

<path  fill="#E70121" stroke-width="0" stroke="#E70121" d = " M150 304 C150.333,304 150.667,304 151,304 151,300.835 155,301.492 155,299 155,298.264 154.736,298 154,298 151.444,298 150,302.016 150,304  Z" />

<path  fill="#F775DA" stroke-width="0" stroke="#F775DA" d = " M166 304 C166,305.333 164,305.667 164,307 160.424,307 155.873,312.687 160.5,315 164.939,317.22 179.546,308.409 182,303.5 182.957,301.585 170,295.568 170,302 169.667,302 169.333,302 169,302 169,300.095 171,299.533 171,298 174,298 177,298 180,298 180,299.947 183,300.636 183,303 183,308.125 175,310.848 175,314 172.646,314 170.574,318.963 168.5,320 167.071,320.715 161.761,318.631 160.5,318 154.861,315.18 157.63,302 164,302 165.695,302 164.305,304 166,304  Z" />

<path  fill="#D9C7E4" stroke-width="0" stroke="#D9C7E4" d = " M243 310 C241.326,310 240.674,313 239,313 239,307.052 237,303.117 237,298 240.073,298 241.927,299 245,299 245,300 245,301 245,302 240.12,302 243,307.702 243,310  Z" />

<path  fill="#C72DC4" stroke-width="0" stroke="#C72DC4" d = " M158 303 C158.333,303 158.667,303 159,303 159,300.798 164,300.021 164,302 165.695,302 164.305,304 166,304 166.716,304 169,302.714 169,302 168.264,302 168.618,302.118 168,301.5 166.484,299.984 157,296.526 157,301 157,301.964 158,302.036 158,303  Z" />

<path  fill="#86EAEE" stroke-width="0" stroke="#86EAEE" d = " M170 302 C171.115,302 180,299.938 180,302.5 180,305.178 169.647,311.926 167.5,313 166.411,313.545 161,313.251 161,311.5 161,309.998 164,308.511 164,307 160.424,307 155.873,312.687 160.5,315 164.939,317.22 179.546,308.409 182,303.5 182.957,301.585 170,295.568 170,302  Z" />

<path  fill="#D81D9D" stroke-width="0" stroke="#D81D9D" d = " M255 301 C255.333,301 255.667,301 256,301 256,300.333 256,299.667 256,299 254.738,299 255,300.073 255,301  Z" />

<path  fill="#473705" stroke-width="0" stroke="#473705" d = " M158 303 C156.921,303 156.355,304 155,304 154.036,304 153.964,303 153,303 153,301.8 155.863,301 157,301 157,301.964 158,302.036 158,303  Z" />

<path  fill="#737BEB" stroke-width="0" stroke="#737BEB" d = " M180 316 C180,317.531 169.018,324 167,324 163.613,324 152.904,314.692 155,310.5 156.114,308.272 159,305.589 159,303 159,300.798 164,300.021 164,302 157.63,302 154.861,315.18 160.5,318 161.761,318.631 167.071,320.715 168.5,320 170.574,318.963 172.646,314 175,314 176.424,314 180,314.362 180,316  Z" />

<path  fill="#B4C934" stroke-width="0" stroke="#B4C934" d = " M166 304 C166,305.333 164,305.667 164,307 164,308.511 161,309.998 161,311.5 161,313.251 166.411,313.545 167.5,313 169.647,311.926 180,305.178 180,302.5 180,299.938 171.115,302 170,302 169.667,302 169.333,302 169,302 169,302.714 166.716,304 166,304  Z" />

<path  fill="#30341E" stroke-width="0" stroke="#30341E" d = " M252 302 C252,304.409 253.957,305 256,305 256,303.667 256,302.333 256,301 255.667,301 255.333,301 255,301 254,301 253,301 252,301 252,301.333 252,301.667 252,302  Z" />

<path  fill="#6557EB" stroke-width="0" stroke="#6557EB" d = " M250 312 C252,312 254,312 256,312 256,309.667 256,307.333 256,305 253.957,305 252,304.409 252,302 249.667,302 247.333,302 245,302 240.12,302 243,307.702 243,310 245.16,310 247.167,312 250,312  Z" />

<path  fill="#94934B" stroke-width="0" stroke="#94934B" d = " M165 326 C165,327.087 161.087,331 160,331 158.523,331 156.07,327.57 155,326.5 147.759,319.259 150,313.013 150,304 150.333,304 150.667,304 151,304 151.964,304 152.036,303 153,303 153.964,303 154.036,304 155,304 155,308.633 151.285,313.069 154,318.5 154.793,320.087 157.477,320.453 158,321.5 159.304,324.108 161.193,326 165,326  Z" />

<path  fill="#0DF74E" stroke-width="0" stroke="#0DF74E" d = " M167 324 C167,324.839 165.839,326 165,326 161.193,326 159.304,324.108 158,321.5 157.477,320.453 154.793,320.087 154,318.5 151.285,313.069 155,308.633 155,304 156.355,304 156.921,303 158,303 158.333,303 158.667,303 159,303 159,305.589 156.114,308.272 155,310.5 152.904,314.692 163.613,324 167,324  Z" />

<path  fill="#B25CFA" stroke-width="0" stroke="#B25CFA" d = " M191 317 C188.512,317 187.01,320 185,320 182.991,320 182.009,316 180,316 180,314.362 176.424,314 175,314 175,310.848 183,308.125 183,303 186.069,303 200,302.206 200,306 200,309.686 191,313.244 191,317  Z" />

<path  fill="#1DC635" stroke-width="0" stroke="#1DC635" d = " M191 317 C191,317.333 191,317.667 191,318 195.494,318 199.506,314 204,314 204,311.683 203.291,306 200,306 200,309.686 191,313.244 191,317  Z" />

<path  fill="#E57368" stroke-width="0" stroke="#E57368" d = " M239 317 C239.927,317 241,316.738 241,318 245.135,318 241.298,314.601 242.5,314 244.008,313.246 245.485,315 247,315 247,312.95 250,313.532 250,312 247.167,312 245.16,310 243,310 241.326,310 240.674,313 239,313 239,313.333 239,313.667 239,314 239,315 239,316 239,317  Z" />

<path  fill="#F4942E" stroke-width="0" stroke="#F4942E" d = " M247 320 C250.544,320 252.636,324 256,324 256,320 256,316 256,312 254,312 252,312 250,312 250,313.532 247,312.95 247,315 247,316.667 247,318.333 247,320  Z" />

<path  fill="#D9C7E4" stroke-width="0" stroke="#D9C7E4" d = " M231 315 C233.721,315 236.279,317 239,317 239,316 239,315 239,314 236.228,314 234.639,313 232,313 230.738,313 231,314.073 231,315  Z" />

<path  fill="#CCA992" stroke-width="0" stroke="#CCA992" d = " M82 322 C88,322 94,322 100,322 100,325.583 99.7365,330.118 103.5,332 105.848,333.174 108.748,328.876 110.5,328 116.15,325.175 122.895,324.803 128.5,322 132.74,319.88 133.783,314 139,314 139,329.396 145,344.604 145,360 143.803,360 143.481,358.49 142.5,358 139.433,356.467 135.69,355.595 132.5,354 129.637,352.569 129.532,348.516 126.5,347 124.728,346.114 121.545,354.977 119.5,356 115.444,358.028 106.613,355.557 103.5,354 91.2281,347.864 82,336.388 82,322  Z" />

<path  fill="#ABCC51" stroke-width="0" stroke="#ABCC51" d = " M183 356 C183,357.994 178.823,360.338 177.5,361 170.956,364.272 163.723,369.111 155.5,365 152.562,363.531 148.369,360 145,360 145,344.604 139,329.396 139,314 148.413,314 152.169,336.335 161.5,341 165.403,342.952 166.972,340 171,340 171,343.251 183,352.749 183,356  Z" />

<path  fill="#C9075E" stroke-width="0" stroke="#C9075E" d = " M171 340 C171,343.251 183,352.749 183,356 185.536,356 191.061,348.378 192,346.5 193.16,344.18 195.851,342.799 197,340.5 200.062,334.376 201.914,327.673 205,321.5 206.139,319.222 204,316.25 204,314 199.506,314 195.494,318 191,318 191,325.767 181.969,330.531 177,335.5 175.896,336.604 171,339.154 171,340  Z" />

<path  fill="#4928A1" stroke-width="0" stroke="#4928A1" d = " M241 318 C241,318.333 241,318.667 241,319 235.85,319 231.663,316 227,316 227,314.738 225.927,315 225,315 225,314.264 225.264,314 226,314 228.089,314 229.09,315 231,315 233.721,315 236.279,317 239,317 239.927,317 241,316.738 241,318  Z" />

<path  fill="#5B3554" stroke-width="0" stroke="#5B3554" d = " M241 319 C241,320.684 245.679,320 247,320 247,318.333 247,316.667 247,315 245.485,315 244.008,313.246 242.5,314 241.298,314.601 245.135,318 241,318 241,318.333 241,318.667 241,319  Z" />

<path  fill-rule="evenodd" fill="#FE41EC" stroke-width="0" stroke="#FE41EC" d = " M220 321 C220,328.232 228.299,321 220,321  M239 344 C242.188,344 241.952,345.726 244.5,347 246.939,348.22 253.212,347 256,347 256,340.667 256,334.333 256,328 252.953,328 248.066,328.283 245.5,327 243.248,325.874 240.832,317.834 236.5,320 235.644,320.428 237.616,321.942 235.5,323 230.604,325.448 229.618,320.118 227.5,318 226.908,317.408 225.048,316 227,316 227,314.738 225.927,315 225,315 221.991,315 220.009,322 217,322 217,323.995 219.498,330.999 221.5,332 221.755,332.128 229.033,336 225,336 225,337.712 227.571,339 229,339 229,335.574 224.168,328.164 226,324.5 227.258,321.985 231,337.827 231,339 232.691,339 234.148,342 236,342 236,339.534 242,340.331 242,342.5 242,344.035 239,340.581 239,344  Z" />

<path  fill="#67B5B6" stroke-width="0" stroke="#67B5B6" d = " M165 326 C165,327.087 161.087,331 160,331 160,333.176 165.56,334.97 167.5,334 170.347,332.577 185,322.922 185,320 182.991,320 182.009,316 180,316 180,317.531 169.018,324 167,324 167,324.839 165.839,326 165,326  Z" />

<path  fill="#988C69" stroke-width="0" stroke="#988C69" d = " M256 324 C256,325.333 256,326.667 256,328 252.953,328 248.066,328.283 245.5,327 243.248,325.874 240.832,317.834 236.5,320 235.644,320.428 237.616,321.942 235.5,323 230.604,325.448 229.618,320.118 227.5,318 226.908,317.408 225.048,316 227,316 231.663,316 235.85,319 241,319 241,320.684 245.679,320 247,320 250.544,320 252.636,324 256,324  Z" />

<path  fill="#9637EF" stroke-width="0" stroke="#9637EF" d = " M232 360 C232,357.627 234.284,360 235,360 235,352.221 241.955,358 245,358 249.64,358 251.223,354 256,354 256,351.667 256,349.333 256,347 253.212,347 246.939,348.22 244.5,347 241.952,345.726 242.188,344 239,344 237.762,344 236,343.577 236,342 234.148,342 232.691,339 231,339 230.333,339 229.667,339 229,339 227.571,339 225,337.712 225,336 225,330.695 215.331,334.162 214,331.5 212.31,328.121 216,324.839 216,322 216,321.667 216,321.333 216,321 211.246,321 206.238,328.975 208,332.5 208.6,333.7 210.4,334.3 211,335.5 211.933,337.367 210.067,340.633 211,342.5 212.577,345.654 220.962,353.231 224.5,355 227.05,356.275 228.966,360 232,360  Z" />

<path  fill="#000000" stroke-width="0" stroke="#000000" d = " M220 321 C220,328.232 228.299,321 220,321  Z" />

<path  fill="#988C69" stroke-width="0" stroke="#988C69" d = " M217 322 C217,323.995 219.498,330.999 221.5,332 221.755,332.128 229.033,336 225,336 225,330.695 215.331,334.162 214,331.5 212.31,328.121 216,324.839 216,322 216.333,322 216.667,322 217,322  Z" />

<path  fill="#988C69" stroke-width="0" stroke="#988C69" d = " M229 339 C229.667,339 230.333,339 231,339 231,337.827 227.258,321.985 226,324.5 224.168,328.164 229,335.574 229,339  Z" />

<path  fill="#988C69" stroke-width="0" stroke="#988C69" d = " M236 342 C236,343.577 237.762,344 239,344 239,340.581 242,344.035 242,342.5 242,340.331 236,339.534 236,342  Z" />

<path  fill="#4928A1" stroke-width="0" stroke="#4928A1" d = " M232 360 C232,357.627 234.284,360 235,360 237.049,360 245,360.342 245,358 249.64,358 251.223,354 256,354 256,360.658 245.648,363 240,363 238.457,363 232,361.291 232,360  Z" />

<path  fill="#988C69" stroke-width="0" stroke="#988C69" d = " M245 358 C241.955,358 235,352.221 235,360 237.049,360 245,360.342 245,358  Z" />

</g>
</svg>
