<svg xmlns="http://www.w3.org/2000/svg" xmlns:xlink="http://www.w3.org/1999/xlink" height="512" width="256">
<path style="fill:#000000; stroke:none;" d="M0 0L0 512L256 512L256 356L255 356C241.749 370.457 219.2 356.494 211.937 341.715C209.517 336.79 209.219 330.32 208 325C222.134 320.295 208.509 301.14 208 290L188 284L185 295L181 294C179.375 308.369 201.387 299.081 203.98 314C207.246 332.791 182.89 367.271 163 365.909C147.675 364.859 137.555 353.109 125 347C113.699 368.173 89.3795 347.712 84.1049 332C81.8446 325.267 85.5499 320.192 84.5772 314.015C83.8302 309.271 79.1229 307.332 75 308C68.995 293.284 63.2489 268.72 79 259L79 258C60.272 254.352 67.7136 227.977 70.1968 215C71.1277 210.135 71.4866 205.114 74.5687 201.019C78.5997 195.662 84.9525 193.275 91 191C78.4123 165.116 118.097 123.882 145 131C151.046 111.386 168.853 108.388 186 103.103C207.546 96.4631 255 80.7466 255 118C255 122.626 255.36 127.428 254.535 132C253.075 140.098 248.871 144.361 245 151C249.933 151.271 252.419 152.78 255 157L256 157L256 0L0 0z"/>
<path style="fill:#f91f65; stroke:none;" d="M184 178C190.436 164.626 179.243 153.464 172.439 143C169.756 138.874 164.356 132.302 167.042 127.093C173.104 115.343 181.209 126.424 188.996 124.292C194.373 122.82 197.14 115.801 201.09 112.33C203.14 110.53 207.855 107.133 210.172 110.478C214.277 116.405 198.64 124.066 203.032 131.856C205.043 135.422 210.86 136.996 213.676 133.678C221.898 123.991 233.177 105.971 237 94C212.636 94 181.532 99.0628 160 111.338C144.29 120.294 140.936 139.165 151.652 153.961C155 158.583 160.479 161.552 165 164.884C171.162 169.426 177.058 174.701 184 178z"/>
<path style="fill:#17ded3; stroke:none;" d="M213 135C219.748 134.841 226.661 132.18 231.1 126.895C233.389 124.17 236.253 116.321 240.037 115.631C247.264 114.313 238.799 134.007 237.362 135.996C233.259 141.676 224.103 148.927 218 152.343C215.012 154.016 212.025 152.089 209.019 153.308C201.67 156.287 201.827 166.658 203 173C216.386 169.829 222.779 162.998 234 155.951C239.444 152.533 247.119 150.523 250.606 144.7C256.031 135.641 257.823 115.966 254.181 106.004C252.328 100.935 244.093 93.8903 238.184 95.7083C234.688 96.7841 231.774 102.09 229.951 105C224.061 114.403 217.385 124.825 213 135z"/>
<path style="fill:#a67efb; stroke:none;" d="M109 173C125.193 177.189 139.603 183.59 155 190.128C160.972 192.664 168.275 193.669 171.543 200.015C175.019 206.766 170.645 211.641 167 217C178.632 221.834 185.155 215.146 193.416 206.215C195.54 203.919 195.96 200.615 199.059 199.193C209.766 194.279 220.86 200.888 231 195C229.858 187.11 236.646 190.61 239.972 186.397C242.63 183.031 242.111 172.866 241 169C234.901 171.843 230.828 177.614 225 181.009C211.82 188.687 198.774 174.289 203.483 161C206.64 152.089 211.648 155.922 218 152.954C228.032 148.267 249.193 129.806 242.4 116.337C240.727 113.019 237.723 116.274 236.439 118.059C230.306 126.59 220.652 139.116 208.005 134.928C191.844 129.578 216.677 116.267 210.353 109.758C207.694 107.021 203.365 109.679 201.09 111.533C196.923 114.93 193.742 123.126 187.999 124.006C180.208 125.2 174.708 116.029 167.603 125.329C160.177 135.05 180.445 153.396 183.981 162C185.981 166.864 187.497 173.446 182.772 177.298C170.757 187.091 146.127 176.789 136.001 168.532C132.591 165.752 129.026 158.941 124.816 157.712C118.094 155.75 110.082 167.637 109 173z"/>
<path style="fill:#000000; stroke:none;" d="M219 123L220 124L219 123z"/>
<path style="fill:#bbcbdd; stroke:none;" d="M173 207C172.717 194.951 164.379 193.835 155 189.691C139.815 182.983 125.367 176.174 109 173C110.624 168.222 117.953 157.421 123.907 158.037C128.27 158.489 133.367 167.418 137 170.073C149.274 179.041 168.689 184.334 183 178C173.697 169.017 159.194 163.623 151.652 152.985C147.019 146.45 148.946 132.007 139.96 129.434C121.112 124.037 101.169 150.987 92.6952 164C88.6018 170.286 84.5365 178.348 87.9383 185.985C91.0485 192.967 100.291 193.966 107 193.999C113.799 194.032 121.369 193.054 128 194.761C143.619 198.781 156.361 206.998 173 207z"/>
<path style="fill:#e2b401; stroke:none;" d="M203 173C213.131 194.232 228.851 177.55 241 169C241.889 173.089 242.605 183.178 239.397 186.397C236.991 188.81 231.568 187.245 230.346 191.105C227.672 199.549 250.549 201 255 201C251.522 188.635 263.432 164.289 253.196 153.434C242.584 142.18 225.952 163.652 218 168.012C213.599 170.426 207.789 171.442 203 173z"/>
<path style="fill:#000000; stroke:none;" d="M171 169L172 170L171 169M210 170L211 171L210 170z"/>
<path style="fill:#9a9113; stroke:none;" d="M173 207C163.76 207 152.771 207.492 144 204.157C137.068 201.521 131.433 196.273 124 194.471C117.247 192.833 109.871 194.64 103 193.816C98.6562 193.294 94.4438 190.933 90 191.466C72.8778 193.519 70.7114 209.132 68.7292 223C67.5211 231.452 64.3163 242.99 68.3272 250.946C72.3555 258.936 85.0152 262.563 92 267.761C107.793 279.513 119.514 298.587 137.424 278C139.646 275.447 142.709 272.987 144.338 270.001C147.022 265.081 141.134 261.864 137 261.214C131.86 260.405 125.591 263.274 121.004 260.393C112.772 255.222 113.775 244.498 106.981 238.105C100.679 232.175 91.154 233.424 85.3179 228.4C82.5245 225.996 82.8204 221.817 85.3179 219.318C90.5262 214.107 101.929 220.246 108 221.381C114.634 222.622 121.597 219.686 127.985 221.318C133.277 222.67 134.71 229.423 140.039 230.472C145 231.449 149.262 227.085 153 224.597C160.797 219.408 170.868 217.567 173 207z"/>
<path style="fill:#000000; stroke:none;" d="M125 194L125 195C137.774 200.976 148.484 206.88 163 207L125 194z"/>
<path style="fill:#733da4; stroke:none;" d="M255 194L255 201L256 201L255 194z"/>
<path style="fill:#9261ed; stroke:none;" d="M223 199C232.351 207.948 243.631 208.999 256 209L256 201C244.111 201 233.688 192.793 223 199z"/>
<path style="fill:#000000; stroke:none;" d="M253 196L253 199L254 199L253 196z"/>
<path style="fill:#bade6e; stroke:none;" d="M204 201L221 202.433L236 209C231.398 201.47 209.999 190.12 204 201z"/>
<path style="fill:#0e3374; stroke:none;" d="M203 207L204 199C194.297 197.003 192.217 209.449 203 207z"/>
<path style="fill:#6dc9c6; stroke:none;" d="M202 204L212 205C208.535 202.78 204.774 199.715 202 204z"/>
<path style="fill:#f7083a; stroke:none;" d="M211 202C213.49 205.84 217.078 204.325 221 205.728C226.088 207.547 233.776 216.971 239 211L256 213L256 209L233 208.316L211 202z"/>
<path style="fill:#2e75c5; stroke:none;" d="M203 206L207 204L203 206z"/>
<path style="fill:#d9dd3c; stroke:none;" d="M204 209L211 208L211 210L208 213L214 210L214 205C209.7 205.207 205.554 204.331 204 209z"/>
<path style="fill:#bade6e; stroke:none;" d="M209.667 205.333L210.333 205.667L209.667 205.333z"/>
<path style="fill:#a310dd; stroke:none;" d="M212 207C216.439 213.769 223.418 218.582 229 210C223.338 205.996 218.561 203.499 212 207z"/>
<path style="fill:#c87dad; stroke:none;" d="M178 223L175 222L163 240L167 241L167 242L163 241L160 246L165 246C163.925 249.521 162.661 250.32 159 250L163 255L156 262L156 263L153 291C157.16 288.921 159.651 288.012 164 290L165 290L168 288L172 292C171.119 286.456 168.749 282.89 163 282C162.521 279.22 160.559 276.818 160.5 274C160.177 258.483 170.582 251.191 177.75 239C182.439 231.024 184.987 221.464 190.472 214C193.985 209.221 202.826 211.508 204 206C199.879 207.457 195.884 206.059 192 207.357C185.115 209.659 181.118 216.978 178 223z"/>
<path style="fill:#207bc3; stroke:none;" d="M197 257L195 257L197 265C203.848 262.585 207.429 265.453 210 272L230.004 255.8L239.972 250.298L241 240L240 240L239 243L231 240L236 215L228 212L227 212C220.29 218.28 215.253 208.448 208 213L211 210L211 208C199.85 206.195 183.485 225.825 185.407 237C186.518 243.452 193.663 251.263 197 257z"/>
<path style="fill:#9cf2fe; stroke:none;" d="M165 282C163.983 276.755 161.517 270.603 165 266C163.486 257.18 172.212 251.228 177.192 245C182.934 237.819 183.895 229.32 188.85 222.001C192.408 216.745 198.186 213.943 202 209C185.708 212.037 185.294 226.633 177.046 239C172.459 245.876 165.194 251.979 162.474 260C160.178 266.769 158.375 277.431 165 282z"/>
<path style="fill:#929045; stroke:none;" d="M167 257C180.403 249.041 182.549 235.013 190.049 223.004C193.619 217.288 200.034 214.385 204 209C189.045 215.655 188.747 226.968 180.899 239C176.782 245.312 170.227 250.218 167 257z"/>
<path style="fill:#03c0f3; stroke:none;" d="M228 211L239.985 215.599L252 222L250 214L256 214L256 213L239 211L228 211z"/>
<path style="fill:#dacff7; stroke:none;" d="M250 214L255 265L256 265L256 214L250 214z"/>
<path style="fill:#5a4c4e; stroke:none;" d="M231 240L239 243C243.727 236.679 246.234 229.934 245.03 222.001C244.47 218.31 241.089 212.921 236.653 216.032C231.841 219.407 232.074 234.46 231 240z"/>
<path style="fill:#c65bfa; stroke:none;" d="M191 317C182.464 319.878 173.891 336.095 164 333.164C145.575 327.702 150.515 309.583 153.13 297C155.172 287.18 154.554 276.077 156.069 266C156.703 261.778 159.635 258.292 159.726 254C159.976 242.163 146.658 235.567 138.174 229.277C134.872 226.829 133.184 222.427 128.961 221.318C123.413 219.861 117.591 222.32 112 221.826C104.539 221.165 95.4451 215.481 88.0193 217.322C83.752 218.38 81.5299 223.9 84.0278 227.683C87.1188 232.364 99.1016 232.549 104 236.39C112.235 242.848 111.959 256.429 121.004 260.971C128.159 264.565 135.788 258.323 142.895 264.394C148.608 269.275 150.215 277.082 147.753 284C143.794 295.126 128.901 315.575 115 310.433C107.284 307.579 103.51 299.268 97 294.638C94.9645 293.19 85.2135 288.54 87.0062 295.058C88.6553 301.054 96.1874 304.383 99 310C101.819 315.629 99.3244 320.283 100.243 325.995C100.648 328.512 102.124 331.284 105.044 331.172C110.144 330.977 124.53 324.253 129 321.297C132.177 319.196 135.651 313.82 139.999 314.752C153.22 317.584 152.016 347.369 170 339.98C172.147 339.098 174.125 338.017 176 336.646C178.784 334.609 181.498 332.3 183.985 329.91C187.92 326.129 190.19 322.379 191 317z"/>
<path style="fill:#fad014; stroke:none;" d="M143 230L150 239L169 217L143 230z"/>
<path style="fill:#3f3ec0; stroke:none;" d="M149 240L155.472 232.972L170 218C160.365 222.268 153.751 230.826 149 240z"/>
<path style="fill:#5d9bf5; stroke:none;" d="M159 246L160 246L176 221C168.411 216.995 151.124 229.893 152.451 238.996C152.915 242.182 156.7 244.205 159 246z"/>
<path style="fill:#1720bb; stroke:none;" d="M180 218L176 223L180 218z"/>
<path style="fill:#5316a7; stroke:none;" d="M245 220L245 226L251 227C252.116 222.197 249.449 220.815 245 220z"/>
<path style="fill:#353bc8; stroke:none;" d="M248 225L244 248L245 248L253 243L253 226L250 227L248 225z"/>
<path style="fill:#44d7c0; stroke:none;" d="M246 226L241 252C245.741 248.926 248.223 231.3 246 226z"/>
<path style="fill:#c87dad; stroke:none;" d="M184 236L164 263L165 263C171.176 255.09 178.574 255.085 187 260L184 236z"/>
<path style="fill:#8ef9f4; stroke:none;" d="M185 239C183.82 246.335 188.916 261.684 197 263L195 257L197 257L185 239z"/>
<path style="fill:#1720bb; stroke:none;" d="M163 240L163 241L167 242L163 240z"/>
<path style="fill:#47e608; stroke:none;" d="M253 242C237.249 248.14 247.161 255.941 252 266L249 271L252 277L256 277L253.326 254L253 242z"/>
<path style="fill:#1720bb; stroke:none;" d="M165 246C155.778 246.718 163.641 254.144 165 246z"/>
<path style="fill:#af00cc; stroke:none;" d="M214 280L221 285L217 286C220.333 292.483 226.962 298.571 230 289L235 294L236 294C234.068 283.393 246.347 279.027 246 290C253.431 285.201 249.359 274.012 249 267C240.698 268.879 237.128 262.055 246 259C240.176 244.461 228.293 256.642 220.91 263.421C218.328 265.792 213.469 268.552 212.442 272.09C211.745 274.492 213.477 277.65 214 280z"/>
<path style="fill:#1208fd; stroke:none;" d="M187 252L191 265L197 265L197 263L187 252z"/>
<path style="fill:#1720bb; stroke:none;" d="M160 254L160 256L163 256L163 254L160 254z"/>
<path style="fill:#92eb00; stroke:none;" d="M165 266C155.553 274.255 172.877 293.395 181 295L184 289C166.7 294.027 162.651 252.071 182.996 262.279C184.629 263.098 186.311 264.036 187.566 265.39C191.884 270.048 189.474 277.868 195 282C194.822 277.92 194.63 274.287 191 272C191.713 269.348 189.94 255.727 187 260C180.076 254.754 164.3 253.903 165 266z"/>
<path style="fill:#4c7b95; stroke:none;" d="M75 308C84.3396 307.997 84.8128 315.082 82 322C86.3616 322 95.8404 323.79 99.3966 320.972C106.536 315.314 94.605 303.387 91.091 299.83C89.7771 298.5 85.3475 293.983 88.4514 292.241C91.0365 290.789 95.1198 293.92 97 295.39C102.922 300.022 106.771 307.682 114 310.437C134.657 318.307 153.13 284.82 147 268C138.887 273.719 126.789 285.354 122 294C109.339 284.317 96.4057 263.656 80 260.056C73.4098 258.61 70.1738 265.814 69.3248 271C67.5395 281.905 69.5838 298.378 75 308z"/>
<path style="fill:#bbf0b1; stroke:none;" d="M246 268L246 259C238.536 260.524 237.82 267.376 246 268z"/>
<path style="fill:#c1503a; stroke:none;" d="M246 259L246 268L248 268L249 259L246 259z"/>
<path style="fill:#36130a; stroke:none;" d="M192 279C191.27 275.442 190.636 271.501 189.571 268.043C187.252 260.511 175.533 257.794 170.653 264.109C166.018 270.106 169.128 278.371 172.919 283.999C174.512 286.365 177.372 290.374 180.655 290.168C184.57 289.922 182.869 284.596 184.117 282.343C185.705 279.475 189.112 279.194 192 279z"/>
<path style="fill:#160700; stroke:none;" d="M248 261L249 268L252 266L250 261L248 261z"/>
<path style="fill:#1720bb; stroke:none;" d="M156 263L156 266L158 266L158 263L156 263z"/>
<path style="fill:#e13163; stroke:none;" d="M192 265L191 272C195.932 276.696 192.04 279.723 193.732 284.785C195.786 290.927 205.308 290.715 210 289L209 286L212 285L211 281C216.341 277.088 209.225 265.353 203.981 263.647C200.403 262.482 195.719 264.81 192 265z"/>
<path style="fill:#a56da3; stroke:none;" d="M249 271L251 276L252 276L249 271z"/>
<path style="fill:#1345db; stroke:none;" d="M251 276L249 288L251 288L251 276z"/>
<path style="fill:#000000; stroke:none;" d="M137 277L138 278L137 277z"/>
<path style="fill:#dcd059; stroke:none;" d="M252 277C251.22 283.172 249.588 290.498 256 294L256 277L252 277z"/>
<path style="fill:#1208fd; stroke:none;" d="M182 294L183 295L185 295L188 284L193 285L193 279C181.656 279.126 184.597 285.45 182 294z"/>
<path style="fill:#1df5a6; stroke:none;" d="M211 281C212.898 285.879 216.261 286.423 221 285C218.132 281.236 215.677 279.769 211 281z"/>
<path style="fill:#add109; stroke:none;" d="M237 298L247 298C246.319 294.318 247.687 287.265 245.357 284.438C242.71 281.225 237.145 282.582 235.607 286.214C234.085 289.81 236.189 294.451 237 298z"/>
<path style="fill:#001ae6; stroke:none;" d="M209 286L216 322L226 313C220.848 309.368 204.012 290.651 216 287L209 286z"/>
<path style="fill:#000000; stroke:none;" d="M116 288L122 294L130 286L116 288z"/>
<path style="fill:#c71c30; stroke:none;" d="M231 315L232 311C225.67 304.992 227.716 288.366 215.059 287.451C208.925 287.007 212.219 295.143 213.428 298C216.917 306.246 222.002 312.837 231 315z"/>
<path style="fill:#0e3374; stroke:none;" d="M155 299C156.651 298.615 158.336 298.299 159.895 297.596C172.696 291.83 152.566 282.091 153.438 294.959C153.539 296.444 154.383 297.708 155 299z"/>
<path style="fill:#4095af; stroke:none;" d="M165 291L168 288L165 291z"/>
<path style="fill:#1deada; stroke:none;" d="M255 301L252 288C242.088 290.436 247.489 299.483 255 301z"/>
<path style="fill:#5b3554; stroke:none;" d="M230 289C225.837 298.518 225.949 312.807 239 314C238.927 305.82 237.936 293.033 230 289z"/>
<path style="fill:#2e75c5; stroke:none;" d="M165 293L170 292C167.587 290.338 166.608 290.556 165 293z"/>
<path style="fill:#e70121; stroke:none;" d="M163 297L174 295L174 293C169.531 291.871 164.604 292.152 163 297z"/>
<path style="fill:#f665ec; stroke:none;" d="M171 298L181 297L181 295C176.665 294.007 173.394 293.902 171 298z"/>
<path style="fill:#e6c9ae; stroke:none;" d="M151 304C157.842 300.401 161.785 298.036 169 302L171 297C163.469 297.804 155.3 296.167 151 304z"/>
<path style="fill:#000000; stroke:none;" d="M247 297L245 302L252 302L247 297z"/>
<path style="fill:#e70121; stroke:none;" d="M150 304L151 304L155 298L150 304z"/>
<path style="fill:#f775da; stroke:none;" d="M169 302C173.922 299.517 176.928 300.354 182 302L182 304L169 315L160 315L165 302C156.723 305.905 154.202 318.489 166 319.392C171.334 319.8 180.381 310.746 182.123 305.996C185.211 297.575 172.491 295.669 169 302z"/>
<path style="fill:#d9c7e4; stroke:none;" d="M239 313L245 299C233.067 297.53 238.575 304.713 239 313z"/>
<path style="fill:#c72dc4; stroke:none;" d="M158 303L165 304L169 303C166.36 299.83 157.874 296.242 158 303z"/>
<path style="fill:#86eaee; stroke:none;" d="M170 302L180 302C174.633 307.81 169.628 313.804 161 312L164 307C159.657 308.319 158.877 310.746 160 315L169 315L182 304L182 302C177.589 300.048 173.754 298.28 170 302z"/>
<path style="fill:#d81d9d; stroke:none;" d="M255.333 299.667L255.667 300.333L255.333 299.667z"/>
<path style="fill:#473705; stroke:none;" d="M153 303L158 303L153 303z"/>
<path style="fill:#737beb; stroke:none;" d="M180 317L180 315C173.969 313.76 172.334 318.244 167 318.938C153.015 320.755 160.447 306.129 164 301C152.384 302.915 154.145 319.054 164.09 322.533C170.189 324.667 174.943 319.567 180 317z"/>
<path style="fill:#b4c934; stroke:none;" d="M161 312C169.392 314.388 175.622 308.599 180 302C170.914 300.388 164.971 303.66 161 312z"/>
<path style="fill:#30341e; stroke:none;" d="M252 301L256 305L256 301L252 301z"/>
<path style="fill:#6557eb; stroke:none;" d="M256 312L256 305C252.593 303.475 249.178 301.138 245.228 302.319C241.025 303.575 241.981 308.942 245.148 310.821C248.204 312.634 252.595 312 256 312z"/>
<path style="fill:#94934b; stroke:none;" d="M165 326C154.813 322.407 151.41 313.851 155 304C141.268 302.619 153.493 340.911 165 326z"/>
<path style="fill:#0df74e; stroke:none;" d="M167 325C158.915 316.301 154.408 315.663 159 303C146.613 307.455 155.081 327.477 167 325z"/>
<path style="fill:#b25cfa; stroke:none;" d="M183 303L175 313C186.113 320.845 194.069 317.949 200 305L183 303z"/>
<path style="fill:#1dc635; stroke:none;" d="M200 306L191 318C197.652 316.461 208.506 313.507 200 306z"/>
<path style="fill:#e57368; stroke:none;" d="M243 318L242 314L250 313C243.847 309.555 234.902 314.731 243 318z"/>
<path style="fill:#f4942e; stroke:none;" d="M256 324L256 312C244.006 312.29 246.908 320.688 256 324z"/>
<path style="fill:#d9c7e4; stroke:none;" d="M231 313L239 317C238.175 313.131 234.562 313.18 231 313z"/>
<path style="fill:#cca992; stroke:none;" d="M100 322L82 322C83.938 332.402 86.2018 342.615 95.0039 349.61C104.457 357.121 120.009 360.416 125 347L145 360L139 314C130.648 316.344 101.088 341.87 100 322z"/>
<path style="fill:#abcc51; stroke:none;" d="M139 314C139.843 324.678 141.655 335.388 143.13 346C143.69 350.025 143.342 356.171 145.938 359.502C152.62 368.075 178.019 369.667 181.669 356.961C182.855 352.83 176.205 345.846 173.536 343.152C169.503 339.081 164.414 342.318 160.015 338.756C151.72 332.041 149.686 317.008 139 314z"/>
<path style="fill:#c9075e; stroke:none;" d="M171 339L183 356L184 356C194.121 345.851 206.794 329.332 204 314C188.73 317.533 184.633 331.965 171 339z"/>
<path style="fill:#4928a1; stroke:none;" d="M225 314L225 315L241 319L241 317L225 314z"/>
<path style="fill:#5b3554; stroke:none;" d="M242 314L241 320L247 320C246.696 316.171 245.795 314.827 242 314z"/>
<path style="fill:#fe41ec; stroke:none;" d="M229 339L226 324L227 324C230.329 335.841 230.454 338.461 242 342L242 343L239 342C242.972 347.759 249.737 347 256 347L256 328L236 320C235.051 327.262 227.413 318.989 227 315C212.604 319.041 219.466 333.685 229 339z"/>
<path style="fill:#67b5b6; stroke:none;" d="M160 332C170.815 337.175 177.359 326.943 185 321C178.004 312.051 164.648 325.405 160 332z"/>
<path style="fill:#988c69; stroke:none;" d="M226 316C227.604 318.773 235.033 327.696 236 320L256 328C254.334 318.152 234.202 317.591 226 316z"/>
<path style="fill:#9637ef; stroke:none;" d="M208 325C210.235 340.281 217.131 357.765 235 360L256 354L256 347C245.61 347 238.16 343.231 229.039 338.531C224.398 336.139 221.477 330.497 216 334L216 321L208 325z"/>
<path style="fill:#000000; stroke:none;" d="M220 321L224 325L220 321z"/>
<path style="fill:#988c69; stroke:none;" d="M216 322C214.339 326.56 213.664 329.6 216 334C219.947 332.275 222.455 333.987 226 336L216 322M226 324C226.408 329.172 226.35 335.915 231 339L226 324M236 341L236 343L237 344L239 342L242 343L236 341z"/>
<path style="fill:#4928a1; stroke:none;" d="M232 359C238.013 367.165 252.831 362.507 256 354L232 359z"/>
<path style="fill:#988c69; stroke:none;" d="M235 360L245 359C241.558 355.485 237.02 354.975 235 360z"/>
</svg>
